<?xml version="1.0" encoding="UTF-8" standalone="no"?>
<svg
   xmlns:dc="http://purl.org/dc/elements/1.1/"
   xmlns:cc="http://creativecommons.org/ns#"
   xmlns:rdf="http://www.w3.org/1999/02/22-rdf-syntax-ns#"
   xmlns:svg="http://www.w3.org/2000/svg"
   xmlns="http://www.w3.org/2000/svg"
   xmlns:xlink="http://www.w3.org/1999/xlink"
   xmlns:sodipodi="http://sodipodi.sourceforge.net/DTD/sodipodi-0.dtd"
   xmlns:inkscape="http://www.inkscape.org/namespaces/inkscape"
   width="236.08249mm"
   height="60.133503mm"
   viewBox="0 0 236.08249 60.133503"
   version="1.1"
   id="svg1055"
   inkscape:version="1.0.2 (e86c870879, 2021-01-15)"
   sodipodi:docname="logo-stand-alone.svg">
  <defs
     id="defs1049">
    <radialGradient
       inkscape:collect="always"
       xlink:href="#linearGradient993"
       id="radialGradient981"
       gradientUnits="userSpaceOnUse"
       gradientTransform="matrix(0.40812479,-1.5017258,1.9077184,0.51846164,62.845161,523.59008)"
       cx="236.95993"
       cy="-43.241367"
       fx="236.95993"
       fy="-43.241367"
       r="44.691216" />
    <linearGradient
       inkscape:collect="always"
       id="linearGradient993">
      <stop
         style="stop-color:#fe5a27;stop-opacity:1"
         offset="0"
         id="stop985" />
      <stop
         id="stop987"
         offset="0.37667337"
         style="stop-color:#ffb552;stop-opacity:1" />
      <stop
         style="stop-color:#ffe100;stop-opacity:1"
         offset="0.76032829"
         id="stop989" />
      <stop
         id="stop991"
         offset="1"
         style="stop-color:#ffe100;stop-opacity:1" />
    </linearGradient>
  </defs>
  <sodipodi:namedview
     id="base"
     pagecolor="#ffffff"
     bordercolor="#666666"
     borderopacity="1.0"
     inkscape:pageopacity="0.0"
     inkscape:pageshadow="2"
     inkscape:zoom="0.7"
     inkscape:cx="339.48672"
     inkscape:cy="-54.92228"
     inkscape:document-units="mm"
     inkscape:current-layer="layer1"
     inkscape:document-rotation="0"
     showgrid="false"
     inkscape:window-width="1920"
     inkscape:window-height="1027"
     inkscape:window-x="0"
     inkscape:window-y="27"
     inkscape:window-maximized="1" />
  <metadata
     id="metadata1052">
    <rdf:RDF>
      <cc:Work
         rdf:about="">
        <dc:format>image/svg+xml</dc:format>
        <dc:type
           rdf:resource="http://purl.org/dc/dcmitype/StillImage" />
        <dc:title />
      </cc:Work>
    </rdf:RDF>
  </metadata>
  <g
     inkscape:label="Layer 1"
     inkscape:groupmode="layer"
     id="layer1"
     transform="translate(13.719628,-112.80826)">
    <path
       sodipodi:nodetypes="ccsssssc"
       inkscape:connector-curvature="0"
       id="path957"
       d="m 75.474521,143.73476 c -1.59665,15.87508 -17.24396,26.99726 -32.144047,27.61946 -18.467604,-0.18899 -29.109015,-4.27302 -44.8851746,-19.20046 -5.30836,-5.02277 -10.1030204,-12.52575 -11.9452904,-20.66855 -1.20597,-5.33039 2.8341,-9.54528 5.3071804,-9.88116 5.52872,-0.75088 14.6831,1.49376 18.9367996,0.67207 12.501741,-2.41497 22.957426,-10.43128 39.512585,-9.37199 17.655407,1.12969 26.863977,12.82401 25.217947,30.83063 z"
       style="display:inline;fill:#a75a37;fill-opacity:1;stroke:none;stroke-width:1.32292;stroke-miterlimit:4;stroke-dasharray:none;stroke-opacity:1"
       inkscape:export-filename="/home/tlaca/logo.png"
       inkscape:export-xdpi="73.053284"
       inkscape:export-ydpi="73.053284" />
    <path
       sodipodi:nodetypes="ccsssssc"
       inkscape:connector-curvature="0"
       id="path959"
       d="m 77.062031,145.32226 c -1.59665,15.87508 -17.24225,27.6437 -32.144037,27.61946 C 26.45038,172.75274 15.80898,168.6687 0.03280937,153.74126 -5.2755406,148.71849 -10.070201,141.21551 -11.912471,133.07271 c -1.20597,-5.33039 2.8341004,-9.54528 5.3071804,-9.88116 5.52871,-0.75088 14.68309,1.49376 18.9367896,0.67207 12.501741,-2.41497 22.957425,-10.43128 39.512585,-9.37199 17.655407,1.12969 26.863977,12.82401 25.217947,30.83063 z"
       style="display:inline;fill:url(#radialGradient981);fill-opacity:1;stroke:none;stroke-width:1.32292;stroke-miterlimit:4;stroke-dasharray:none;stroke-opacity:1"
       inkscape:export-filename="/home/tlaca/logo.png"
       inkscape:export-xdpi="73.053284"
       inkscape:export-ydpi="73.053284" />
    <path
       sodipodi:nodetypes="cscscssc"
       inkscape:connector-curvature="0"
       id="path961"
       d="m 73.896471,146.35157 c 0.10403,-1.2516 1.62146,-2.12023 2.92108,-2.16553 0.0996,-0.004 1.3117,0.10906 1.41342,0.11658 1.42962,0.10562 1.89809,1.21075 1.78603,2.55823 -0.11208,1.34749 -0.71706,2.4304 -2.14668,2.32478 -0.072,-0.005 -1.40716,-0.10674 -1.47718,-0.11736 -1.32115,-0.20064 -2.60309,-1.437 -2.49667,-2.71667 z"
       style="display:inline;fill:#a75a37;fill-opacity:1;stroke:none;stroke-width:1.64146;stroke-miterlimit:4;stroke-dasharray:none;stroke-opacity:1"
       inkscape:export-filename="/home/tlaca/logo.png"
       inkscape:export-xdpi="73.053284"
       inkscape:export-ydpi="73.053284" />
    <g
       aria-label="Nutrition 
Cooking"
       id="text931"
       style="font-style:normal;font-variant:normal;font-weight:normal;font-stretch:normal;font-size:31.75px;line-height:0.95;font-family:Signika;-inkscape-font-specification:Signika;display:inline;fill:#ffaa00;fill-opacity:1;stroke:none;stroke-width:0.264583;stroke-opacity:1">
      <path
         d="m 96.90315,114.07095 q 0.587375,-0.14288 1.55575,-0.20638 0.968375,-0.0794 1.444625,-0.0794 0.492125,0 1.301755,0.0476 0.80962,0.0318 1.651,0.14288 l -1.28588,5.7785 -0.33337,0.11112 q 0.127,1.34938 0.20637,3.06388 0.0953,1.69862 0.14288,3.39725 0.0476,1.69862 0.0476,3.01625 v 6.31825 q -0.61912,0.11112 -1.22237,0.14287 -0.603255,0.0476 -1.079505,0.0476 -0.460375,0 -1.158875,-0.0476 -0.682625,-0.0317 -1.27,-0.14287 z m 6.23888,10.2235 q -0.52388,-1.22238 -1.00013,-2.39713 -0.46037,-1.17475 -0.77787,-2.0955 l -2.349505,-2.71462 3.841755,-3.1115 4.8895,11.33475 q 0.60325,1.397 1.12712,2.68287 0.52388,1.27 0.85725,2.14313 l 2.57175,2.77812 -4.14337,2.74638 z m 11.01725,-10.31875 v 21.59 q -0.60325,0.14287 -1.5875,0.20637 -0.96838,0.0794 -1.47638,0.0794 -0.49212,0 -1.30175,-0.0476 -0.80962,-0.0317 -1.63512,-0.14287 l 1.3335,-5.47688 0.36512,-0.11112 q -0.127,-1.47638 -0.22225,-3.2385 -0.0794,-1.76213 -0.127,-3.39725 -0.0476,-1.63513 -0.0476,-2.7305 v -3.8735 q 0,-1.69863 0.68262,-2.38125 0.6985,-0.68263 2.159,-0.68263 h 1.651 z"
         style="font-style:normal;font-variant:normal;font-weight:bold;font-stretch:normal;font-size:31.75px;font-family:Signika;-inkscape-font-specification:'Signika Bold';fill:#ffaa00;fill-opacity:1;stroke:none;stroke-width:0.264583;stroke-opacity:1"
         id="path2329" />
      <path
         d="m 132.05037,131.13657 q 0,0.762 0.23813,1.38113 0.254,0.61912 0.65087,0.90487 -0.127,0.66675 -0.58737,1.397 -0.46038,0.73025 -0.92075,1.09538 -2.11138,-0.0476 -3.22263,-1.44463 -1.11125,-1.41287 -1.11125,-3.39725 V 119.8177 q 0.508,-0.0953 1.17475,-0.14288 0.66675,-0.0476 1.30175,-0.0476 0.61913,0 1.27,0.0476 0.66675,0.0476 1.2065,0.14288 z m -13.63662,-7.35012 q 0,-0.93663 -0.1905,-1.74625 -0.17463,-0.80963 -0.60325,-1.41288 0.53975,-0.46037 1.34937,-0.762 0.80963,-0.30162 1.74625,-0.30162 1.49225,0 2.06375,0.79375 0.58738,0.79375 0.58738,2.27012 v 6.76275 q 0,1.0795 0.28575,1.5875 0.28575,0.508 1.0795,0.508 0.49212,0 1.12712,-0.254 0.65088,-0.26987 1.28588,-0.85725 0.65087,-0.60325 1.12712,-1.60337 v 4.33387 q -1.11125,1.09538 -2.42887,1.9685 -1.30175,0.87313 -2.9845,0.87313 -1.4605,0 -2.44475,-0.71438 -0.98425,-0.73025 -1.49225,-2.00025 -0.508,-1.28587 -0.508,-2.93687 z"
         style="font-style:normal;font-variant:normal;font-weight:bold;font-stretch:normal;font-size:31.75px;font-family:Signika;-inkscape-font-specification:'Signika Bold';fill:#ffaa00;fill-opacity:1;stroke:none;stroke-width:0.264583;stroke-opacity:1"
         id="path2331" />
      <path
         d="m 136.57474,118.02382 q 0,-1.66687 0.60325,-2.31775 0.61913,-0.66675 2.07963,-0.66675 h 1.93675 l 0.22225,0.22225 v 15.28763 q 0,0.71437 0.3175,1.11125 0.33337,0.381 1.09537,0.381 h 1.778 q 0.39688,1.143 0.39688,2.3495 0,0.26987 -0.0317,0.5715 -0.0318,0.30162 -0.0952,0.53975 -0.87313,0.127 -2.01613,0.22225 -1.143,0.0953 -2.0955,0.0953 -2.159,0 -3.175,-1.06363 -1.016,-1.0795 -1.016,-3.34962 z m 8.60425,1.76213 q 0.22225,0.84137 0.22225,1.73037 0,0.98425 -0.22225,1.79388 l -5.92137,-0.0952 -5.17525,0.0952 q -0.20638,-0.80963 -0.20638,-1.79388 0,-0.889 0.20638,-1.73037 l 5.31812,0.0794 z"
         style="font-style:normal;font-variant:normal;font-weight:bold;font-stretch:normal;font-size:31.75px;font-family:Signika;-inkscape-font-specification:'Signika Bold';fill:#ffaa00;fill-opacity:1;stroke:none;stroke-width:0.264583;stroke-opacity:1"
         id="path2333" />
      <path
         d="m 157.38676,119.86532 q 0,0.87313 -0.3175,2.23838 -0.3175,1.34937 -0.92075,2.39712 -0.42862,-0.15875 -0.8255,-0.22225 -0.39687,-0.0635 -0.80962,-0.11112 -0.635,0 -1.143,0.23812 -0.508,0.22225 -0.93663,0.66675 -0.41275,0.4445 -0.77787,1.09538 -0.34925,0.65087 -0.68263,1.49225 l -0.55562,-0.74613 q 0.0794,-1.30175 0.33337,-2.6035 0.254,-1.30175 0.77788,-2.36537 0.53975,-1.06363 1.44462,-1.69863 0.90488,-0.65087 2.30188,-0.65087 0.73025,0 1.17475,0.0794 0.46037,0.0794 0.93662,0.1905 z m -11.63637,2.25425 q 0.14287,-0.66675 0.58737,-1.42875 0.46038,-0.762 0.92075,-1.12712 2.19075,0.15875 3.302,1.63512 1.12713,1.4605 1.34938,3.84175 v 10.62038 q -0.52388,0.0952 -1.19063,0.14287 -0.65087,0.0476 -1.28587,0.0476 -0.61913,0 -1.28588,-0.0476 -0.65087,-0.0476 -1.2065,-0.14287 V 125.4057 q 0,-1.397 -0.41275,-2.20663 -0.39687,-0.80962 -0.77787,-1.0795 z"
         style="font-style:normal;font-variant:normal;font-weight:bold;font-stretch:normal;font-size:31.75px;font-family:Signika;-inkscape-font-specification:'Signika Bold';fill:#ffaa00;fill-opacity:1;stroke:none;stroke-width:0.264583;stroke-opacity:1"
         id="path2335" />
      <path
         d="m 165.62583,135.66095 q -0.52388,0.0952 -1.19063,0.14287 -0.65087,0.0476 -1.28587,0.0476 -0.61913,0 -1.28588,-0.0476 -0.65087,-0.0476 -1.2065,-0.14287 V 125.1517 q 0,-0.79375 -0.33337,-1.31763 -0.3175,-0.52387 -1.15888,-0.52387 h -0.47625 q -0.20637,-0.77788 -0.20637,-1.68275 0,-0.41275 0.0476,-0.87313 0.0476,-0.47625 0.15875,-0.90487 0.73025,-0.0794 1.49225,-0.11113 0.77788,-0.0476 1.30175,-0.0476 h 0.68263 q 1.5875,0 2.52412,1.03187 0.93663,1.016 0.93663,2.76225 z m -5.92138,-20.30413 q 0,-0.98425 0.36513,-1.85737 0.41275,-0.20638 1.06362,-0.34925 0.66675,-0.14288 1.30175,-0.14288 0.635,0 1.31763,0.14288 0.68262,0.14287 1.04775,0.34925 0.17462,0.4445 0.26987,0.93662 0.0952,0.49213 0.0952,0.92075 0,0.96838 -0.36512,1.8415 -0.36513,0.20638 -1.04775,0.34925 -0.68263,0.14288 -1.31763,0.14288 -0.635,0 -1.31762,-0.127 -0.66675,-0.14288 -1.04775,-0.36513 -0.36513,-0.87312 -0.36513,-1.8415 z"
         style="font-style:normal;font-variant:normal;font-weight:bold;font-stretch:normal;font-size:31.75px;font-family:Signika;-inkscape-font-specification:'Signika Bold';fill:#ffaa00;fill-opacity:1;stroke:none;stroke-width:0.264583;stroke-opacity:1"
         id="path2337" />
      <path
         d="m 169.88025,118.02382 q 0,-1.66687 0.60325,-2.31775 0.61912,-0.66675 2.07962,-0.66675 h 1.93675 l 0.22225,0.22225 v 15.28763 q 0,0.71437 0.3175,1.11125 0.33338,0.381 1.09538,0.381 h 1.778 q 0.39687,1.143 0.39687,2.3495 0,0.26987 -0.0317,0.5715 -0.0317,0.30162 -0.0952,0.53975 -0.87312,0.127 -2.01612,0.22225 -1.143,0.0953 -2.0955,0.0953 -2.159,0 -3.175,-1.06363 -1.016,-1.0795 -1.016,-3.34962 z m 8.60425,1.76213 q 0.22225,0.84137 0.22225,1.73037 0,0.98425 -0.22225,1.79388 l -5.92138,-0.0952 -5.17525,0.0952 q -0.20637,-0.80963 -0.20637,-1.79388 0,-0.889 0.20637,-1.73037 l 5.31813,0.0794 z"
         style="font-style:normal;font-variant:normal;font-weight:bold;font-stretch:normal;font-size:31.75px;font-family:Signika;-inkscape-font-specification:'Signika Bold';fill:#ffaa00;fill-opacity:1;stroke:none;stroke-width:0.264583;stroke-opacity:1"
         id="path2339" />
      <path
         d="m 186.56483,135.66095 q -0.52387,0.0952 -1.19062,0.14287 -0.65088,0.0476 -1.28588,0.0476 -0.61912,0 -1.28587,-0.0476 -0.65088,-0.0476 -1.2065,-0.14287 V 125.1517 q 0,-0.79375 -0.33338,-1.31763 -0.3175,-0.52387 -1.15887,-0.52387 h -0.47625 q -0.20638,-0.77788 -0.20638,-1.68275 0,-0.41275 0.0476,-0.87313 0.0476,-0.47625 0.15875,-0.90487 0.73025,-0.0794 1.49225,-0.11113 0.77787,-0.0476 1.30175,-0.0476 h 0.68262 q 1.5875,0 2.52413,1.03187 0.93662,1.016 0.93662,2.76225 z m -5.92137,-20.30413 q 0,-0.98425 0.36512,-1.85737 0.41275,-0.20638 1.06363,-0.34925 0.66675,-0.14288 1.30175,-0.14288 0.635,0 1.31762,0.14288 0.68263,0.14287 1.04775,0.34925 0.17463,0.4445 0.26988,0.93662 0.0952,0.49213 0.0952,0.92075 0,0.96838 -0.36513,1.8415 -0.36512,0.20638 -1.04775,0.34925 -0.68262,0.14288 -1.31762,0.14288 -0.635,0 -1.31763,-0.127 -0.66675,-0.14288 -1.04775,-0.36513 -0.36512,-0.87312 -0.36512,-1.8415 z"
         style="font-style:normal;font-variant:normal;font-weight:bold;font-stretch:normal;font-size:31.75px;font-family:Signika;-inkscape-font-specification:'Signika Bold';fill:#ffaa00;fill-opacity:1;stroke:none;stroke-width:0.264583;stroke-opacity:1"
         id="path2341" />
      <path
         d="m 204.04316,127.73932 q 0,2.54 -0.84138,4.42913 -0.84137,1.88912 -2.4765,2.93687 -1.63512,1.03188 -4.01637,1.03188 -2.413,0 -4.04813,-1.04775 -1.63512,-1.04775 -2.46062,-2.93688 -0.8255,-1.88912 -0.8255,-4.41325 0,-2.55587 0.8255,-4.42912 0.84137,-1.88913 2.4765,-2.921 1.63512,-1.04775 4.03225,-1.04775 2.413,0 4.03225,1.04775 1.63512,1.04775 2.46062,2.93687 0.84138,1.87325 0.84138,4.41325 z m -9.57263,0 q 0,1.30175 0.14288,2.36538 0.15875,1.06362 0.635,1.69862 0.47625,0.61913 1.4605,0.61913 0.96837,0 1.44462,-0.61913 0.49213,-0.635 0.635,-1.69862 0.15875,-1.06363 0.15875,-2.36538 0,-1.31762 -0.15875,-2.38125 -0.14287,-1.06362 -0.635,-1.68275 -0.47625,-0.635 -1.44462,-0.635 -0.98425,0 -1.4605,0.635 -0.47625,0.61913 -0.635,1.68275 -0.14288,1.06363 -0.14288,2.38125 z"
         style="font-style:normal;font-variant:normal;font-weight:bold;font-stretch:normal;font-size:31.75px;font-family:Signika;-inkscape-font-specification:'Signika Bold';fill:#ffaa00;fill-opacity:1;stroke:none;stroke-width:0.264583;stroke-opacity:1"
         id="path2343" />
      <path
         d="m 208.98026,119.59545 q 1.42875,0 2.14313,0.96837 0.73025,0.96838 0.73025,2.63525 v 12.46188 q -0.52388,0.0952 -1.19063,0.14287 -0.65087,0.0476 -1.28587,0.0476 -0.61913,0 -1.28588,-0.0476 -0.66675,-0.0476 -1.2065,-0.14287 V 119.8177 l 0.22225,-0.22225 z m 11.557,12.09675 q 0,0.93662 0.17463,1.74625 0.17462,0.79375 0.61912,1.41287 -0.55562,0.46038 -1.36525,0.762 -0.80962,0.30163 -1.73037,0.30163 -1.49225,0 -2.07963,-0.79375 -0.58737,-0.79375 -0.58737,-2.286 v -6.74688 q 0,-1.0795 -0.28575,-1.5875 -0.26988,-0.52387 -1.06363,-0.52387 -0.49212,0 -1.143,0.26987 -0.65087,0.26988 -1.28587,0.87313 -0.635,0.58737 -1.12713,1.5875 v -4.34975 q 1.11125,-1.0795 2.413,-1.95263 1.31763,-0.87312 3.01625,-0.87312 1.44463,0 2.42888,0.73025 1.00012,0.71437 1.50812,1.98437 0.508,1.27 0.508,2.93688 z"
         style="font-style:normal;font-variant:normal;font-weight:bold;font-stretch:normal;font-size:31.75px;font-family:Signika;-inkscape-font-specification:'Signika Bold';fill:#ffaa00;fill-opacity:1;stroke:none;stroke-width:0.264583;stroke-opacity:1"
         id="path2345" />
      <path
         d="m 108.2379,152.7742 q 0.0318,-1.31763 -0.26987,-2.4765 -0.28575,-1.17475 -1.06363,-1.88913 -0.762,-0.73025 -2.159,-0.73025 -2.04787,0 -2.921,1.905 -0.85725,1.88913 -0.85725,5.50863 0,3.38137 1.12713,5.08 1.143,1.69862 3.22262,1.69862 1.651,0 2.96863,-0.6985 1.3335,-0.6985 2.42887,-1.524 0.74613,0.508 1.44463,1.44463 0.71437,0.93662 0.889,1.82562 -0.92075,0.90488 -2.286,1.68275 -1.34938,0.762 -2.9845,1.22238 -1.63513,0.47625 -3.39725,0.47625 -2.49238,0 -4.191,-0.96838 -1.682755,-0.98425 -2.68288,-2.6035 -1.000125,-1.63512 -1.444625,-3.6195 -0.428625,-2.00025 -0.428625,-4.04812 0,-3.98463 1.254125,-6.50875 1.27,-2.52413 3.381375,-3.71475 2.11138,-1.19063 4.65138,-1.19063 2.46062,0 4.28625,0.87313 1.8415,0.87312 2.84162,2.36537 1.016,1.49225 1.016,3.3655 0,1.47638 -0.77787,2.14313 -0.762,0.65087 -2.12725,0.65087 -0.55563,0 -1.016,-0.0794 -0.4445,-0.0794 -0.90488,-0.1905 z"
         style="font-style:normal;font-variant:normal;font-weight:bold;font-stretch:normal;font-size:31.75px;font-family:Signika;-inkscape-font-specification:'Signika Bold';fill:#ffaa00;fill-opacity:1;stroke:none;stroke-width:0.264583;stroke-opacity:1"
         id="path2347" />
      <path
         d="m 129.28809,157.90182 q 0,2.54 -0.84137,4.42913 -0.84138,1.88912 -2.4765,2.93687 -1.63513,1.03188 -4.01638,1.03188 -2.413,0 -4.04812,-1.04775 -1.63513,-1.04775 -2.46063,-2.93688 -0.8255,-1.88912 -0.8255,-4.41325 0,-2.55587 0.8255,-4.42912 0.84138,-1.88913 2.4765,-2.921 1.63513,-1.04775 4.03225,-1.04775 2.413,0 4.03225,1.04775 1.63513,1.04775 2.46063,2.93687 0.84137,1.87325 0.84137,4.41325 z m -9.57262,0 q 0,1.30175 0.14287,2.36538 0.15875,1.06362 0.635,1.69862 0.47625,0.61913 1.4605,0.61913 0.96838,0 1.44463,-0.61913 0.49212,-0.635 0.635,-1.69862 0.15875,-1.06363 0.15875,-2.36538 0,-1.31762 -0.15875,-2.38125 -0.14288,-1.06362 -0.635,-1.68275 -0.47625,-0.635 -1.44463,-0.635 -0.98425,0 -1.4605,0.635 -0.47625,0.61913 -0.635,1.68275 -0.14287,1.06363 -0.14287,2.38125 z"
         style="font-style:normal;font-variant:normal;font-weight:bold;font-stretch:normal;font-size:31.75px;font-family:Signika;-inkscape-font-specification:'Signika Bold';fill:#ffaa00;fill-opacity:1;stroke:none;stroke-width:0.264583;stroke-opacity:1"
         id="path2349" />
      <path
         d="m 145.86157,157.90182 q 0,2.54 -0.84137,4.42913 -0.84138,1.88912 -2.4765,2.93687 -1.63513,1.03188 -4.01638,1.03188 -2.413,0 -4.04812,-1.04775 -1.63513,-1.04775 -2.46063,-2.93688 -0.8255,-1.88912 -0.8255,-4.41325 0,-2.55587 0.8255,-4.42912 0.84138,-1.88913 2.4765,-2.921 1.63513,-1.04775 4.03225,-1.04775 2.413,0 4.03225,1.04775 1.63513,1.04775 2.46063,2.93687 0.84137,1.87325 0.84137,4.41325 z m -9.57262,0 q 0,1.30175 0.14287,2.36538 0.15875,1.06362 0.635,1.69862 0.47625,0.61913 1.4605,0.61913 0.96838,0 1.44463,-0.61913 0.49212,-0.635 0.635,-1.69862 0.15875,-1.06363 0.15875,-2.36538 0,-1.31762 -0.15875,-2.38125 -0.14288,-1.06362 -0.635,-1.68275 -0.47625,-0.635 -1.44463,-0.635 -0.98425,0 -1.4605,0.635 -0.47625,0.61913 -0.635,1.68275 -0.14287,1.06363 -0.14287,2.38125 z"
         style="font-style:normal;font-variant:normal;font-weight:bold;font-stretch:normal;font-size:31.75px;font-family:Signika;-inkscape-font-specification:'Signika Bold';fill:#ffaa00;fill-opacity:1;stroke:none;stroke-width:0.264583;stroke-opacity:1"
         id="path2351" />
      <path
         d="m 153.56092,165.82345 q -0.52387,0.0952 -1.17475,0.14287 -0.65087,0.0476 -1.28587,0.0476 -1.30175,0 -2.39713,-0.1905 V 142.6777 l 0.22225,-0.22225 h 1.93675 q 1.4605,0 2.07963,0.66675 0.61912,0.66675 0.61912,2.31775 z m 8.09625,-4.0005 q 0.39688,1.23825 0.71438,1.79387 0.3175,0.55563 0.80962,0.90488 -0.58737,0.66675 -1.47637,1.11125 -0.889,0.4445 -1.85738,0.4445 -1.06362,0 -1.60337,-0.508 -0.52388,-0.508 -0.92075,-1.69863 l -0.93663,-2.74637 q -0.33337,-1.016 -0.762,-1.3335 -0.42862,-0.3175 -1.0795,-0.3175 -0.68262,0 -1.19062,0.0635 -0.508,0.0476 -1.03188,0.11112 l -1.28587,0.15875 v -3.41312 h 4.98475 q 1.73037,0 3.01625,0.73025 1.28587,0.73025 1.8415,2.38125 z m -1.76212,-6.9215 q -0.71438,1.41287 -2.07963,2.11137 -1.36525,0.6985 -3.429,0.6985 h -2.74637 v -2.27012 l 2.413,-0.0318 q 0.33337,0 0.52387,-0.11113 0.1905,-0.11112 0.381,-0.4445 l 1.651,-3.19087 q 0.4445,-0.90488 1.09538,-1.34938 0.66675,-0.46037 1.66687,-0.46037 0.79375,0 1.44463,0.0159 0.65087,0.0159 1.3335,0.0476 l 0.1905,0.254 z"
         style="font-style:normal;font-variant:normal;font-weight:bold;font-stretch:normal;font-size:31.75px;font-family:Signika;-inkscape-font-specification:'Signika Bold';fill:#ffaa00;fill-opacity:1;stroke:none;stroke-width:0.264583;stroke-opacity:1"
         id="path2353" />
      <path
         d="m 170.8646,165.82345 q -0.52387,0.0952 -1.19062,0.14287 -0.65088,0.0476 -1.28588,0.0476 -0.61912,0 -1.28587,-0.0476 -0.65088,-0.0476 -1.2065,-0.14287 V 155.3142 q 0,-0.79375 -0.33338,-1.31763 -0.3175,-0.52387 -1.15887,-0.52387 h -0.47625 q -0.20638,-0.77788 -0.20638,-1.68275 0,-0.41275 0.0476,-0.87313 0.0476,-0.47625 0.15875,-0.90487 0.73025,-0.0794 1.49225,-0.11113 0.77787,-0.0476 1.30175,-0.0476 h 0.68262 q 1.5875,0 2.52413,1.03187 0.93662,1.016 0.93662,2.76225 z m -5.92137,-20.30413 q 0,-0.98425 0.36512,-1.85737 0.41275,-0.20638 1.06363,-0.34925 0.66675,-0.14288 1.30175,-0.14288 0.635,0 1.31762,0.14288 0.68263,0.14287 1.04775,0.34925 0.17463,0.4445 0.26988,0.93662 0.0953,0.49213 0.0953,0.92075 0,0.96838 -0.36513,1.8415 -0.36512,0.20638 -1.04775,0.34925 -0.68262,0.14288 -1.31762,0.14288 -0.635,0 -1.31763,-0.127 -0.66675,-0.14288 -1.04775,-0.36513 -0.36512,-0.87312 -0.36512,-1.8415 z"
         style="font-style:normal;font-variant:normal;font-weight:bold;font-stretch:normal;font-size:31.75px;font-family:Signika;-inkscape-font-specification:'Signika Bold';fill:#ffaa00;fill-opacity:1;stroke:none;stroke-width:0.264583;stroke-opacity:1"
         id="path2355" />
      <path
         d="m 176.70656,149.75795 q 1.42875,0 2.14312,0.96837 0.73025,0.96838 0.73025,2.63525 v 12.46188 q -0.52387,0.0952 -1.19062,0.14287 -0.65088,0.0476 -1.28588,0.0476 -0.61912,0 -1.28587,-0.0476 -0.66675,-0.0476 -1.2065,-0.14287 V 149.9802 l 0.22225,-0.22225 z m 11.557,12.09675 q 0,0.93662 0.17462,1.74625 0.17463,0.79375 0.61913,1.41287 -0.55563,0.46038 -1.36525,0.762 -0.80963,0.30163 -1.73038,0.30163 -1.49225,0 -2.07962,-0.79375 -0.58738,-0.79375 -0.58738,-2.286 v -6.74688 q 0,-1.0795 -0.28575,-1.5875 -0.26987,-0.52387 -1.06362,-0.52387 -0.49213,0 -1.143,0.26987 -0.65088,0.26988 -1.28588,0.87313 -0.635,0.58737 -1.12712,1.5875 v -4.34975 q 1.11125,-1.0795 2.413,-1.95263 1.31762,-0.87312 3.01625,-0.87312 1.44462,0 2.42887,0.73025 1.00013,0.71437 1.50813,1.98437 0.508,1.27 0.508,2.93688 z"
         style="font-style:normal;font-variant:normal;font-weight:bold;font-stretch:normal;font-size:31.75px;font-family:Signika;-inkscape-font-specification:'Signika Bold';fill:#ffaa00;fill-opacity:1;stroke:none;stroke-width:0.264583;stroke-opacity:1"
         id="path2357" />
      <path
         d="m 206.15465,152.2662 q -0.39688,0.28575 -0.65088,0.92075 -0.23812,0.61912 -0.23812,1.36525 v 8.382 q 0,2.2225 -0.20638,3.66712 -0.1905,1.44463 -0.55562,2.36538 -0.36513,0.92075 -0.87313,1.55575 -0.93662,1.19062 -2.49237,1.74625 -1.55575,0.5715 -3.46075,0.5715 -1.49225,0 -3.1115,-0.30163 -1.61925,-0.28575 -2.8575,-0.74612 0,-0.87313 0.34925,-1.92088 0.34925,-1.04775 0.87312,-1.66687 1.016,0.4445 2.12725,0.6985 1.11125,0.254 2.159,0.254 1.15888,0 1.85738,-0.39688 0.71437,-0.39687 1.03187,-1.12712 0.3175,-0.71438 0.3175,-1.69863 V 154.4887 q 0,-1.9685 1.06363,-3.34963 1.06362,-1.38112 3.15912,-1.41287 0.46038,0.36512 0.93663,1.12712 0.47625,0.74613 0.5715,1.41288 z m -15.0495,5.66737 q 0,-2.7305 0.85725,-4.60375 0.87312,-1.88912 2.31775,-2.8575 1.4605,-0.96837 3.19087,-0.96837 1.53988,0 2.63525,0.508 1.09538,0.508 1.80975,1.25412 0.71438,0.73025 1.12713,1.41288 l -0.80963,4.04812 q -0.92075,-1.7145 -1.98437,-2.61937 -1.04775,-0.92075 -1.905,-0.92075 -0.77788,0 -1.25413,0.58737 -0.47625,0.5715 -0.6985,1.651 -0.20637,1.06363 -0.20637,2.54 0,2.20663 0.52387,3.20675 0.53975,0.98425 1.34938,0.98425 0.9525,0 1.85737,-0.65087 0.92075,-0.65088 1.53988,-1.93675 l 0.6985,3.44487 q -0.52388,0.90488 -1.34938,1.61925 -0.8255,0.6985 -1.85737,1.11125 -1.016,0.39688 -2.12725,0.39688 -1.93675,0 -3.20675,-1.04775 -1.27,-1.04775 -1.88913,-2.88925 -0.61912,-1.85738 -0.61912,-4.27038 z"
         style="font-style:normal;font-variant:normal;font-weight:bold;font-stretch:normal;font-size:31.75px;font-family:Signika;-inkscape-font-specification:'Signika Bold';fill:#ffaa00;fill-opacity:1;stroke:none;stroke-width:0.264583;stroke-opacity:1"
         id="path2359" />
    </g>
  </g>
</svg>
